<svg width="15" height="15" viewBox="0 0 15 15"
    xmlns="http://www.w3.org/2000/svg" class="icon">
    <path fill='#636363' d="M9.609 2.93h.82a.118.118 0 0 0 .117-.117v-.82a.118.118 0 0 0-.117-.117h-.82a.118.118 0 0 0-.117.117v.82c0 .064.053.117.117.117zm.85 9.141h-.82a.118.118 0 0 0-.117.117v.82c0 .064.053.117.117.117h.82a.118.118 0 0 0 .117-.117v-.82a.118.118 0 0 0-.117-.117zm-7.646-2.55h-.82a.118.118 0 0 0-.117.117v.82c0 .064.053.117.117.117h.82a.118.118 0 0 0 .117-.117v-.82a.118.118 0 0 0-.117-.117zm0 2.549h-.82a.118.118 0 0 0-.117.117v.82c0 .064.053.117.117.117h.82a.118.118 0 0 0 .117-.117v-.82a.118.118 0 0 0-.117-.117zM13.008 1.875h-.82a.118.118 0 0 0-.117.117v.82c0 .064.053.117.117.117h.82a.118.118 0 0 0 .117-.117v-.82a.118.118 0 0 0-.117-.117zm0 2.549h-.82a.118.118 0 0 0-.117.117v.82c0 .064.053.117.117.117h.82a.118.118 0 0 0 .117-.117v-.82a.118.118 0 0 0-.117-.117zm0 2.549h-.82a.118.118 0 0 0-.117.117v.82c0 .064.053.117.117.117h.82a.118.118 0 0 0 .117-.117v-.82a.118.118 0 0 0-.117-.117zm0 2.549h-.82a.118.118 0 0 0-.117.117v.82c0 .064.053.117.117.117h.82a.118.118 0 0 0 .117-.117v-.82a.118.118 0 0 0-.117-.117zm0 2.549h-.82a.118.118 0 0 0-.117.117v.82c0 .064.053.117.117.117h.82a.118.118 0 0 0 .117-.117v-.82a.118.118 0 0 0-.117-.117zm-5.098 0h-.82a.118.118 0 0 0-.117.117v.82c0 .064.053.117.117.117h.82a.118.118 0 0 0 .117-.117v-.82a.118.118 0 0 0-.117-.117zm-2.549 0h-.82a.118.118 0 0 0-.117.117v.82c0 .064.053.117.117.117h.82a.118.118 0 0 0 .117-.117v-.82a.118.118 0 0 0-.117-.117zM7.91 1.876H5.244a3.37 3.37 0 0 0-3.369 3.369v2.666c0 .064.053.117.117.117h.82a.118.118 0 0 0 .117-.117V5.244A2.313 2.313 0 0 1 5.243 2.93h2.666a.118.118 0 0 0 .117-.117v-.82a.118.118 0 0 0-.117-.117z"/>
</svg>  