<svg xmlns="http://www.w3.org/2000/svg" viewBox="0 0 118.877 118.877" style="enable-background:new 0 0 118.877 118.877" xml:space="preserve" width="118.877" height="118.877">
  <path style="fill:#e5e5e5" d="M52.736 118.44s3.5-3.064-2.627-8.316c0 0-13.383-6.194-22.885-21.449 0 0-7.803-7.991-7.533-10.912-1.753-12.714-3.833-12.371-3.273-14.222-4.963-6.095.787-21.521 9.797-8.521.191 0 5.088 10.711 5.219 10.566 0 0 7.797 8.982 11.207 11.003 10.945-2.716 3.758-26.205 4.527-28.053 0 0-2.031-15.638-4.365-34.304 1.5-16.5 12.428-7.704 13.402-3.168 1.197.191 5.998 29.488 7.406 29.906 0 0 10.381-8.753 16.07 3.939 0 0 11.379-6.565 15.756 6.128 0 0 15.318 1.312 14.006 15.318 0 0 3.209 26.261-6.42 44.643l-2.334 7.879-47.953-.437z"/>
  <path style="fill:#e5e5e5" d="m40.08 27.29-1.281-6.304s-.053-.464-.496-.381c-.613.116-6.322 1.292-6.322 1.292s-.777.146-.166.565l1.598 1.087s-.184.267-.459.674l-3.174 4.651s-.154.216.129.411c.285.194 3.52 2.4 3.92 2.67.396.272.506-.036.506-.036.658-.966 2.275-3.338 3.166-4.642l.51-.753 1.73 1.178c.503.345.339-.412.339-.412zm-9.156 8.923-3.92-2.672c-.281-.194-.428.031-.428.031l-3.17 4.651c-.279.408-.459.676-.459.676l-1.596-1.089c-.615-.419-.465.36-.465.36s.99 5.745 1.105 6.357c.086.442.537.32.537.32l6.336-1.109s.764-.124.26-.467c-.508-.344-1.729-1.178-1.729-1.178s.203-.295.512-.751c.891-1.304 2.508-3.676 3.166-4.642.001-.001.247-.215-.149-.487zM48.729 0C42.59 0 37.613 4.976 37.613 11.115S42.59 22.23 48.729 22.23s11.115-4.977 11.115-11.115S54.867 0 48.729 0zm0 19.928a8.814 8.814 0 1 1 0-17.628 8.814 8.814 0 0 1 0 17.628zm-28.694 26.43c-6.138 0-11.115 4.976-11.115 11.115s4.977 11.115 11.115 11.115S31.15 63.611 31.15 57.473s-4.976-11.115-11.115-11.115zm0 19.928a8.814 8.814 0 1 1 0-17.628 8.814 8.814 0 0 1 0 17.628z"/>
</svg>
