<svg xmlns="http://www.w3.org/2000/svg" xmlns:xlink="http://www.w3.org/1999/xlink" width="20" height="20" fill="none">
    <style>
      .B{stroke:#000}.C{stroke-width:.75}
    </style>
    <g filter="url(#A)">
        <use xlink:href="#B" fill-rule="evenodd" fill="#fff" />
        <use xlink:href="#B" stroke-linejoin="round" class="B C" />
        <path d="M13.187 12.664V9.205m-2.015 3.47-.016-3.473m-1.98.032.021 3.426" class="B C" style="stroke-linecap:round" />
    </g>
    <defs>
        <filter id="A" x="-.933" y="-1.6" width="21.2" height="22.2" filterUnits="userSpaceOnUse" color-interpolation-filters="sRGB">
            <feFlood flood-opacity="0" result="A" />
            <feColorMatrix in="SourceAlpha" values="0 0 0 0 0 0 0 0 0 0 0 0 0 0 0 0 0 0 127 0" />
            <feOffset dy="1" />
            <feGaussianBlur stdDeviation="1.3" />
            <feColorMatrix values="0 0 0 0 0 0 0 0 0 0 0 0 0 0 0 0 0 0 0.32 0" />
            <feBlend in2="A" />
            <feBlend in="SourceGraphic" />
        </filter>
        <path id="B" d="M6.194 4.965c.48-.178 1.427-.069 1.677.473.213.462.396 1.241.406 1.075.024-.369-.024-1.167.137-1.584.117-.304.347-.59.686-.691.285-.086.62-.116.916-.055.313.064.642.287.765.499.362.623.368 1.899.385 1.831.064-.272.07-1.229.283-1.584.141-.235.497-.445.687-.479.294-.052.656-.068.964-.008.249.049.586.344.677.487.219.344.342 1.316.379 1.658.016.141.074-.393.293-.736.406-.639 1.844-.763 1.898.639l.02 1.064-.04 1.202c-.03.399-.116 1.304-.241 1.742-.086.301-.371.978-.653 1.384 0 0-1.074 1.25-1.191 1.812s-.078.567-.102.965a3.5 3.5 0 0 0 .121.923s-.801.104-1.234.034c-.391-.062-.875-.84-1-1.078-.172-.328-.539-.265-.682-.023-.224.383-.709 1.07-1.05 1.113-.669.084-2.055.03-3.14.02 0 0 .185-1.011-.227-1.358l-1.144-1.06-.832-.921c-.283-.36-1.002-.929-1.243-1.985-.213-.936-.192-1.395.037-1.77a1.5 1.5 0 0 1 .854-.625c.208-.042.692-.039.875.062.223.123.313.159.488.391.23.307.312.456.213.121-.076-.262-.322-.595-.434-.97-.109-.361-.401-.943-.38-1.526.008-.221.103-.771.832-1.042z" />
    </defs>
</svg>  