<svg xmlns="http://www.w3.org/2000/svg" width="16" height="17" fill="none">
    <path fill-rule="evenodd" d="m4.504 8.503-.406-1.552c-.167-.557-.342-.859-.47-1.233-.155-.455-.303-.721-.496-1.181a12.1 12.1 0 0 1-.457-1.44 1.427 1.427 0 0 1 .244-1.206c.253-.339.962-.49 1.357-.351.371.13.744.512.916.788.288.46.357.632.717 1.542a10.91 10.91 0 0 1 .611 2.231l.085.452-.044-1.162-.038-2.939c.002-.126.064-.587.084-.715.078-.5.305-.8.673-.979A1.71 1.71 0 0 1 8.681.741c.423.173.626.55.687 1.022l.093 1.107.015 2.174.017 1.469c.061-.656.094-3.189.344-3.942.144-.433.405-.746.794-.929.431-.203 1.113-.07 1.404.243.285.305.446.692.482 1.153.032.405-.019.897-.02 1.245l-.037 2.121c-.001.038-.015.298.023.182l.266-.745.359-.859c.114-.234.211-.369.415-.688a1.38 1.38 0 0 1 .668-.561c.54-.235 1.109.112 1.301.591.086.215.009.713-.028 1.105-.061.647-.254 1.306-.352 1.648-.128.447-.274 1.235-.34 1.601l-.359 1.82c-.086.301-.371.978-.652 1.384 0 0-1.074 1.25-1.192 1.812s-.078.567-.101.965.121.923.121.923-.802.104-1.234.034c-.391-.062-.875-.841-1-1.078-.172-.328-.539-.265-.682-.023-.225.383-.709 1.07-1.051 1.113-.668.084-2.054.03-3.139.02 0 0 .185-1.011-.227-1.358l-1.144-1.06-.832-.921c-.284-.36-.629-1.093-1.243-1.985C1.689 9.82 1.01 9.239.753 8.745.53 8.32.422 7.791.563 7.42c.225-.594.675-.897 1.362-.832a2.02 2.02 0 0 1 1.238.537 7.36 7.36 0 0 1 .75.748c.163.195.203.276.377.509.23.307.302.459.214.121z" fill="#fff" />
    <g stroke="#000" stroke-width=".75" stroke-linecap="round">
        <path d="m4.504 8.503-.406-1.552c-.167-.557-.342-.859-.47-1.233-.155-.455-.303-.721-.496-1.181a12.1 12.1 0 0 1-.457-1.44 1.427 1.427 0 0 1 .244-1.206c.253-.339.962-.49 1.357-.351.371.13.744.512.916.788.288.46.357.632.717 1.542a10.91 10.91 0 0 1 .611 2.231l.085.452-.044-1.162-.038-2.939c.002-.126.064-.587.084-.715.078-.5.305-.8.673-.979A1.71 1.71 0 0 1 8.681.741c.423.173.626.55.687 1.022l.093 1.107.015 2.174.017 1.469c.061-.656.094-3.189.344-3.942.144-.433.405-.746.794-.929.431-.203 1.113-.07 1.404.243.285.305.446.692.482 1.153.032.405-.019.897-.02 1.245l-.037 2.121c-.001.038-.015.298.023.182l.266-.745.359-.859c.114-.234.211-.369.415-.688a1.38 1.38 0 0 1 .668-.561c.54-.235 1.109.112 1.301.591.086.215.009.713-.028 1.105-.061.647-.254 1.306-.352 1.648-.128.447-.274 1.235-.34 1.601l-.359 1.82c-.086.301-.371.978-.652 1.384 0 0-1.074 1.25-1.192 1.812s-.078.567-.101.965.121.923.121.923-.802.104-1.234.034c-.391-.062-.875-.841-1-1.078-.172-.328-.539-.265-.682-.023-.225.383-.709 1.07-1.051 1.113-.668.084-2.054.03-3.139.02 0 0 .185-1.011-.227-1.358l-1.144-1.06-.832-.921c-.284-.36-.629-1.093-1.243-1.985C1.689 9.82 1.01 9.239.753 8.745.53 8.32.422 7.791.563 7.42c.225-.594.675-.897 1.362-.832a2.02 2.02 0 0 1 1.238.537 7.36 7.36 0 0 1 .75.748c.163.195.203.276.377.509.23.307.302.459.214.121" stroke-linejoin="round" />
        <path d="M11.515 12.664V9.205m-2.016 3.47-.016-3.473m-1.98.032.021 3.426" />
    </g>
</svg>  