<svg xmlns="http://www.w3.org/2000/svg" viewBox="0 0 127.38 127.38" style="enable-background:new 0 0 127.38 127.38" xml:space="preserve" width="127.38" height="127.38">
  <path style="fill:#e5e5e5" d="M122.203 57.275c-1.906 -8.3 -10.963 -6.144 -10.963 -6.144 -4.929 -6.465 -10.223 -0.528 -10.223 -0.528 -5.684 -6.215 -10.562 0.979 -10.562 0.979 -0.597 0.019 -5.095 -10.988 -8.209 -18.195a7.688 7.688 0 0 0 1.266 -4.232 7.73 7.73 0 0 0 -15.458 0c0 3.948 2.962 7.198 6.784 7.665 5.396 16.655 6.549 21.948 6.549 21.948 -0.26 3.437 0.006 11.722 0.006 11.722 -3.033 6.864 0.479 9.891 0.479 9.891 6.354 5.715 17.701 12.29 17.701 12.29 4.521 1.855 3.091 4.281 3.091 4.281l24.489 -7.817 -0.154 -4.973c2.041 -12.399 -4.796 -26.887 -4.796 -26.887zM69.654 29.154a6.129 6.129 0 1 1 11.781 2.372c-1.123 -2.548 -1.952 -4.284 -2.146 -4.252 -1.422 -2.423 -8.514 -5.688 -6.24 4.083 0.43 1.299 0.837 2.542 1.225 3.731a6.126 6.126 0 0 1 -4.62 -5.934zm43.922 41.78c-2.02 0.633 -6.983 2.186 -9.71 3.043l-1.573 0.487s0.801 2.559 1.128 3.616c0.334 1.057 -0.892 0.373 -0.892 0.373l-10.245 -5.54s-0.777 -0.333 -0.401 -1.061c0.523 -1 5.568 -10.273 5.568 -10.273s0.66 -1.271 1.064 0.012l1.042 3.342s0.561 -0.179 1.409 -0.443c2.637 -0.828 7.766 -2.434 9.73 -3.048 0 0 0.455 -0.155 0.644 0.438 0.187 0.598 2.306 7.359 2.563 8.197 0.265 0.832 -0.327 0.857 -0.327 0.857zM51.58 29.155a7.728 7.728 0 0 0 -7.729 7.729c0 1.781 0.608 3.416 1.62 4.723 -3.115 7.161 -7.927 18.995 -8.547 18.976 0 0 -4.878 -7.194 -10.562 -0.979 0 0 -5.294 -5.937 -10.223 0.528 0 0 -9.057 -2.156 -10.963 6.144 0 0 -6.837 14.488 -4.796 26.887l-0.154 4.973 24.489 7.817s-1.43 -2.426 3.091 -4.281c0 0 11.348 -6.575 17.701 -12.29 0 0 3.513 -3.026 0.479 -9.891 0 0 0.266 -8.285 0.006 -11.722 0 0 1.217 -5.579 6.985 -23.289 3.601 -0.658 6.332 -3.805 6.332 -7.596a7.73 7.73 0 0 0 -7.729 -7.729zM34.744 76.209l-5.677 10.17s-0.667 1.234 -0.953 0.163a1712.4 1712.4 0 0 1 -0.987 -3.657l-1.589 0.433c-2.761 0.738 -7.784 2.09 -9.827 2.639 0 0 -0.513 0.298 -0.736 -0.547 -0.232 -0.845 -2.07 -7.688 -2.232 -8.293 -0.16 -0.603 0.308 -0.716 0.308 -0.716a10138.628 10138.628 0 0 1 11.274 -3.027s-0.562 -2.078 -0.912 -3.38c-0.348 -1.3 0.892 -0.581 0.892 -0.581s9.23 5.122 10.208 5.685c0.709 0.413 0.231 1.111 0.231 1.111zm18.823 -33.533c0.247 -0.754 0.5 -1.522 0.763 -2.318 2.275 -9.773 -4.817 -6.507 -6.239 -4.084 -0.177 -0.029 -0.883 1.413 -1.858 3.6a6.128 6.128 0 0 1 5.347 -9.119 6.129 6.129 0 0 1 6.129 6.128 6.13 6.13 0 0 1 -4.142 5.793z"/>
</svg>
